<?xml version="1.0" standalone="no"?> <!DOCTYPE svg PUBLIC "-//W3C//DTD SVG 1.0//EN" "http://www.w3.org/TR/2001/REC-SVG-20010904/DTD/svg10.dtd" > <svg xmlns="http://www.w3.org/2000/svg" width="100%" height="100%">
<defs >
<font id="gothamnarrow-book" horiz-adv-x="433" ><font-face
    font-family="Gotham Narrow Book"
    units-per-em="1000"
    panose-1="0 0 0 0 0 0 0 0 0 0"
    ascent="800"
    descent="-200"
    alphabetic="0" />
<missing-glyph horiz-adv-x="500" d="M0 -200V800H500V-200H0ZM71 750L250 360L429 750H71ZM50 -76L222 300L50 676V-76ZM450 676L278 300L450 -76V676ZM250 240L71 -150H429L250 240Z" />
<glyph unicode=" " glyph-name="space" horiz-adv-x="259" />
<glyph unicode="!" glyph-name="exclam" horiz-adv-x="250" d="M105 196L82 644V700H168V644L145 196H105ZM80 0V103H169V0H80Z" />
<glyph unicode="&quot;" glyph-name="quotedbl" horiz-adv-x="386" d="M232 431L253 700H338V694L268 431H232ZM59 431L80 700H166V694L96 431H59Z" />
<glyph unicode="#" glyph-name="numbersign" horiz-adv-x="605" d="M534 243V177H421L396 0H333L358 177H196L171 0H107L132 177H37V243H142L173 460H70V526H183L208 700H271L246 526H408L433 700H497L472 526H566V460H462L431 243H534ZM236 461L204 243H368L400
461H236Z" />
<glyph unicode="$" glyph-name="dollar" horiz-adv-x="547" d="M477 626L435 570Q372 624 304 634V385Q405 351 448 305T492 186V185Q492 109 441 59T306 0V-99H248V0Q129 9 41 93L85 149Q162 75 250 65V324Q152 357 109 401T65 519V520Q65 593 115 643T248 701V761H306V700Q399
692 477 626ZM420 183Q420 227 395 256T304 308V64Q358 70 389 102T420 182V183ZM138 524Q138 480 162 453T250 402V636Q198 630 168 600T138 525V524Z" />
<glyph unicode="%" glyph-name="percent" horiz-adv-x="738" d="M248 354T186 354T84 403T44 527V532Q44 607 84 657T187 707T289 658T329 534V529Q329 454 289 404ZM186 653Q150 653 128 619T106 533V529Q106 476 129 442T187 408Q223 408 245 441T268 528V532Q268
585 245 619T186 653ZM347 363L564 700H628L390 336L175 0H111L347 363ZM613 -7T551 -7T449 42T409 166V171Q409 246 449 296T552 346T654 297T694 173V168Q694 93 654 43ZM552 47Q588 47 610 80T633 167V171Q633 224 610 258T551 292Q515 292 493 258T470 172V168Q470
115 493 81T552 47Z" />
<glyph unicode="&amp;" glyph-name="ampersand" horiz-adv-x="611" d="M529 -12L437 94Q350 -9 236 -9Q150 -9 94 44T38 180V183Q38 314 190 391Q121 480 121 551V554Q121 620 167 665T288 711Q356 711 399 667T443 560V557Q443 443 295 373L436 203Q469 260 504
355L565 330Q525 221 481 151L586 29L529 -12ZM256 418Q374 470 374 555V556Q374 596 349 622T286 649Q245 649 218 622T191 554V552Q191 522 205 493T256 418ZM242 55Q325 55 395 143L229 343Q171 315 143 274T114 187V184Q114 129 150 92T242 55Z" />
<glyph unicode="&apos;" glyph-name="quotesingle" horiz-adv-x="211" d="M59 431L80 700H166V694L96 431H59Z" />
<glyph unicode="(" glyph-name="parenleft" horiz-adv-x="379" d="M308 -138Q188 -69 123 39T58 288T123 537T308 714L337 667Q132 531 132 288T337 -91L308 -138Z" />
<glyph unicode=")" glyph-name="parenright" horiz-adv-x="379" d="M71 -138L42 -91Q247 46 247 288T42 667L71 714Q191 645 255 537T320 288T256 39T71 -138Z" />
<glyph unicode="*" glyph-name="asterisk" horiz-adv-x="386" d="M167 404L178 527L81 457L55 502L164 553L55 605L81 650L178 580L167 702H219L208 580L304 650L331 605L221 553L331 502L304 457L208 527L219 404H167Z" />
<glyph unicode="+" glyph-name="plus" horiz-adv-x="542" d="M236 137V318H56V386H236V567H306V386H486V318H306V137H236Z" />
<glyph unicode="," glyph-name="comma" horiz-adv-x="222" d="M50 -121L38 -87Q107 -62 103 0H66V103H156V15Q156 -43 131 -75T50 -121Z" />
<glyph unicode="-" glyph-name="hyphen" horiz-adv-x="371" d="M57 263V338H314V263H57Z" />
<glyph unicode="." glyph-name="period" horiz-adv-x="222" d="M66 0V103H156V0H66Z" />
<glyph unicode="/" glyph-name="slash" horiz-adv-x="437" d="M-16 -119L374 789H439L50 -119H-16Z" />
<glyph unicode="0" glyph-name="zero" horiz-adv-x="615" d="M307 -11Q191 -11 123 87T54 345V353Q54 512 123 611T308 711T492 613T561 355V347Q561 188 492 89T307 -11ZM229 57T308 57T435 137T484 345V353Q484 480 435 561T307 643T180 563T131 355V347Q131
220 180 139Z" />
<glyph unicode="1" glyph-name="one" horiz-adv-x="316" d="M153 0V624L39 584L26 649L171 704H227V0H153Z" />
<glyph unicode="2" glyph-name="two" horiz-adv-x="520" d="M42 0V58L268 310Q333 379 358 423T384 516Q384 572 348 606T258 641Q172 641 101 541L49 585Q132 710 265 710Q351 710 406 658T462 523V520Q462 456 431 404T321 268L146 70H467V0H42Z" />
<glyph unicode="3" glyph-name="three" horiz-adv-x="523" d="M250 -11Q119 -11 37 85L85 137Q154 58 250 58Q311 58 351 96T392 198V201Q392 267 341 302T206 337H180L169 384L363 631H66V700H459V644L263 397Q352 387 410 339T468 204V201Q468 107 405 48T250 -11Z" />
<glyph unicode="4" glyph-name="four" horiz-adv-x="576" d="M370 0V162H49L35 217L375 705H441V225H534V162H441V0H370ZM120 225H370V587L120 225Z" />
<glyph unicode="5" glyph-name="five" horiz-adv-x="528" d="M249 -11Q134 -11 44 76L89 132Q168 58 250 58Q317 58 359 102T402 215V218Q402 286 360 325T250 364Q188 364 128 332L80 365L98 700H448V630H163L149 407Q208 432 262 432Q355 432 416 376T478 221V218Q478
117 414 53T249 -11Z" />
<glyph unicode="6" glyph-name="six" horiz-adv-x="562" d="M383 -11T289 -11T135 49Q94 90 74 153T54 322V330Q54 505 123 608T313 711Q402 711 482 648L442 588Q378 642 310 642Q225 642 178 559T129 343Q189 438 299 438Q388 438 449 380T510 224V222Q510 121
447 55ZM290 56Q355 56 394 102T434 219V221Q434 289 394 331T289 373Q224 373 182 330T140 220V218Q140 148 181 102T290 56Z" />
<glyph unicode="7" glyph-name="seven" horiz-adv-x="512" d="M114 0L384 630H56V700H465V643L195 0H114Z" />
<glyph unicode="8" glyph-name="eight" horiz-adv-x="545" d="M272 -10Q174 -10 109 45T44 186V189Q44 250 78 294T171 362Q64 415 64 523V526Q64 607 125 658T272 710Q359 710 419 659T480 526V523Q480 414 374 362Q432 338 466 294T501 190V187Q501 99 436 45T272
-10ZM215 390T272 390T368 427T407 520V522Q407 576 369 610T272 645T176 611T138 522V520Q138 464 176 427ZM272 55Q342 55 384 93T426 189V191Q426 250 382 289T272 328T163 289T119 191V189Q119 132 161 94T272 55Z" />
<glyph unicode="9" glyph-name="nine" horiz-adv-x="562" d="M251 58Q335 58 383 141T433 352Q373 255 264 255Q172 255 112 314T52 472V474Q52 576 115 643T273 711T427 650Q508 569 508 378V370Q508 193 437 91T249 -11Q156 -11 71 58L110 118Q181 58 251 58ZM273
319Q338 319 380 364T422 477V479Q422 551 381 597T271 644Q206 644 167 596T128 477V475Q128 404 168 362T273 319Z" />
<glyph unicode=":" glyph-name="colon" horiz-adv-x="232" d="M71 418V520H161V418H71ZM71 0V103H161V0H71Z" />
<glyph unicode=";" glyph-name="semicolon" horiz-adv-x="232" d="M71 418V520H161V418H71ZM55 -121L43 -87Q112 -62 108 0H71V103H161V15Q161 -43 136 -75T55 -121Z" />
<glyph unicode="&lt;" glyph-name="less" horiz-adv-x="542" d="M464 108L56 320V384L464 596V519L135 353L464 186V108Z" />
<glyph unicode="=" glyph-name="equal" horiz-adv-x="542" d="M65 421V492H477V421H65ZM65 212V283H477V212H65Z" />
<glyph unicode="&gt;" glyph-name="greater" horiz-adv-x="542" d="M78 108V185L408 351L78 518V596L486 384V320L78 108Z" />
<glyph unicode="?" glyph-name="question" horiz-adv-x="467" d="M185 196L172 362L177 367Q261 375 306 412T351 513V515Q351 570 315 605T219 640Q137 640 68 564L23 614Q110 708 223 708Q314 708 370 655T427 518V515Q427 432 376 382T243 315L233 196H185ZM165
0V103H254V0H165Z" />
<glyph unicode="@" glyph-name="at" horiz-adv-x="875" d="M438 -153Q270 -153 159 -37T47 256Q47 442 163 576T450 711Q611 711 719 602T828 340Q828 219 776 145T651 71Q602 71 570 95T529 160Q464 71 379 71Q315 71 272 117T229 238Q229 346 292 425T437 504Q527
504 563 419L577 490L640 480L598 244Q591 208 591 181Q591 148 609 129T661 109Q715 109 754 174T793 340Q793 475 695 576T450 678Q345 678 260 619T128 464T81 256Q81 92 181 -14T439 -121Q555 -121 657 -60L674 -87Q564 -153 438 -153ZM395 129Q443 129 483
169Q510 196 527 239T545 327Q545 378 517 411T444 444Q396 444 356 404Q329 377 313 333T296 243Q296 189 323 159T395 129Z" />
<glyph unicode="A" glyph-name="A" horiz-adv-x="674" d="M33 0L300 704H374L641 0H561L493 184H178L110 0H33ZM203 252H468L336 607L203 252Z" />
<glyph unicode="B" glyph-name="B" horiz-adv-x="618" d="M84 0V700H321Q434 700 494 640Q540 594 540 525V523Q540 406 425 360Q570 318 570 192V189Q570 101 504 51T326 0H84ZM464 513V515Q464 569 425 600T317 632H159V386H310Q381 386 422 419T464 513ZM494
196Q494 255 449 287T320 320H159V68H329Q405 68 449 101T494 194V196Z" />
<glyph unicode="C" glyph-name="C" horiz-adv-x="615" d="M359 -10Q228 -10 143 89T57 346V352Q57 510 144 610T364 710Q484 710 577 624L531 567Q455 640 363 640Q265 640 200 560T135 353V349Q135 221 200 141T363 60Q455 60 536 138L581 86Q483 -10 359 -10Z" />
<glyph unicode="D" glyph-name="D" horiz-adv-x="668" d="M84 0V700H282Q428 700 519 604T611 354V347Q611 193 520 97T282 0H84ZM280 631H159V69H280Q395 69 464 145T533 346V353Q533 478 464 554T280 631Z" />
<glyph unicode="E" glyph-name="E" horiz-adv-x="566" d="M84 0V700H511V631H159V387H475V319H159V69H516V0H84Z" />
<glyph unicode="F" glyph-name="F" horiz-adv-x="550" d="M84 0V700H507V631H159V377H470V308H159V0H84Z" />
<glyph unicode="G" glyph-name="G" horiz-adv-x="667" d="M371 -10Q229 -10 143 88T57 346V353Q57 507 144 608T369 710Q489 710 581 635L536 575Q462 640 367 640Q267 640 201 559T135 353V348Q135 216 200 137T374 58Q461 58 525 108V305H350V372H597V72Q496
-10 371 -10Z" />
<glyph unicode="H" glyph-name="H" horiz-adv-x="656" d="M84 0V700H159V387H497V700H572V0H497V317H159V0H84Z" />
<glyph unicode="I" glyph-name="I" horiz-adv-x="256" d="M91 0V700H166V0H91Z" />
<glyph unicode="J" glyph-name="J" horiz-adv-x="461" d="M198 -9Q85 -9 23 90L75 137Q126 61 199 61Q250 61 280 97T311 202V700H386V202Q386 97 331 42Q280 -9 198 -9Z" />
<glyph unicode="K" glyph-name="K" horiz-adv-x="616" d="M84 0V700H159V296L491 700H584L329 394L598 0H507L277 333L159 196V0H84Z" />
<glyph unicode="L" glyph-name="L" horiz-adv-x="519" d="M84 0V700H159V69H484V0H84Z" />
<glyph unicode="M" glyph-name="M" horiz-adv-x="751" d="M84 0V700H162L375 325L589 700H667V0H592V564L376 190H373L157 564V0H84Z" />
<glyph unicode="N" glyph-name="N" horiz-adv-x="679" d="M84 0V700H155L521 149V700H595V0H532L157 564V0H84Z" />
<glyph unicode="O" glyph-name="O" horiz-adv-x="716" d="M491 -11T358 -11T141 89T57 345V353Q57 508 141 609T359 711T575 611T659 355V347Q659 191 575 90ZM262 58T359 58T519 139T582 346V353Q582 479 519 560T358 642T198 561T135 354V347Q135 221 198 140Z" />
<glyph unicode="P" glyph-name="P" horiz-adv-x="577" d="M84 0V700H295Q407 700 474 641T541 478V476Q541 369 470 309T286 247H159V0H84ZM159 315H288Q369 315 417 358T465 474V475Q465 550 419 590T291 631H159V315Z" />
<glyph unicode="Q" glyph-name="Q" horiz-adv-x="717" d="M670 32L620 -20L540 56Q462 -11 358 -11Q225 -11 141 89T57 345V353Q57 508 141 609T359 711T575 611T659 355V347Q659 206 586 106L670 32ZM360 58Q433 58 489 105L377 206L426 258L533 156Q582 233
582 346V353Q582 479 519 560T358 642T198 561T135 354V347Q135 220 198 139T360 58Z" />
<glyph unicode="R" glyph-name="R" horiz-adv-x="621" d="M84 0V700H323Q444 700 507 635Q562 580 562 491V489Q562 409 517 358T396 287L584 0H494L318 272H159V0H84ZM159 340H310Q394 340 440 379T487 486V488Q487 556 442 593T318 631H159V340Z" />
<glyph unicode="S" glyph-name="S" horiz-adv-x="547" d="M280 -10Q143 -10 37 89L84 146Q177 59 281 59Q343 59 382 92T421 177V178Q421 224 389 255T266 318Q155 359 110 404T64 523V525Q64 604 123 657T275 710Q394 710 485 631L440 573Q361 641 272 641Q213
641 177 610T140 532V530Q140 483 173 452T303 386Q409 347 453 300T497 183V181Q497 97 436 44T280 -10Z" />
<glyph unicode="T" glyph-name="T" horiz-adv-x="544" d="M234 0V630H38V700H506V630H309V0H234Z" />
<glyph unicode="U" glyph-name="U" horiz-adv-x="654" d="M326 -11Q212 -11 144 60T76 261V700H151V263Q151 165 198 112T328 58Q410 58 456 110T503 260V700H578V265Q578 133 510 61T326 -11Z" />
<glyph unicode="V" glyph-name="V" horiz-adv-x="640" d="M286 -5L33 700H115L321 104L528 700H607L355 -5H286Z" />
<glyph unicode="W" glyph-name="W" horiz-adv-x="956" d="M248 -5L38 700H119L284 124L447 702H511L675 124L840 700H917L708 -5H642L478 560L314 -5H248Z" />
<glyph unicode="X" glyph-name="X" horiz-adv-x="616" d="M484 700H568L353 360L579 0H493L307 302L121 0H37L263 358L47 700H134L308 415L484 700Z" />
<glyph unicode="Y" glyph-name="Y" horiz-adv-x="608" d="M266 0V282L20 700H107L305 358L503 700H588L342 284V0H266Z" />
<glyph unicode="Z" glyph-name="Z" horiz-adv-x="585" d="M55 0V51L435 632H69V700H532V649L152 68H532V0H55Z" />
<glyph unicode="[" glyph-name="bracketleft" horiz-adv-x="386" d="M88 -130V700H334V644H156V-74H334V-130H88Z" />
<glyph unicode="\" glyph-name="backslash" horiz-adv-x="437" d="M387 -119L-3 789H63L453 -119H387Z" />
<glyph unicode="]" glyph-name="bracketright" horiz-adv-x="386" d="M51 -130V-74H229V644H51V700H298V-130H51Z" />
<glyph unicode="^" glyph-name="asciicircum" horiz-adv-x="455" d="M69 503L199 698H256L386 503H323L227 643L130 503H69Z" />
<glyph unicode="_" glyph-name="underscore" horiz-adv-x="555" d="M-2 -159V-99H557V-159H-2Z" />
<glyph unicode="`" glyph-name="grave" horiz-adv-x="500" d="M262 589L157 694L231 729L317 589H262Z" />
<glyph unicode="a" glyph-name="a" horiz-adv-x="503" d="M207 -11Q138 -11 89 33T40 151V155Q40 234 92 278T232 323Q298 323 366 302V333Q366 396 331 429T233 462Q166 462 100 427L77 486Q163 528 241 528Q335 528 387 476Q437 426 437 335V0H366V76Q311 -11
207 -11ZM223 49Q283 48 325 86T367 181V246Q309 267 241 267Q180 267 146 238T112 158V155Q112 107 143 78T223 49Z" />
<glyph unicode="b" glyph-name="b" horiz-adv-x="571" d="M315 -10Q210 -10 146 97V0H74V722H146V421Q211 531 315 531Q400 531 461 460T523 266V256Q523 133 462 62T315 -10ZM237 55T301 55T407 109T449 256V264Q449 356 406 411T301 466Q237 466 190 410T143
265V255Q143 167 190 111Z" />
<glyph unicode="c" glyph-name="c" horiz-adv-x="477" d="M375 -11T276 -11T112 63T46 255V262Q46 379 112 455T278 531Q371 531 442 460L399 406Q340 465 277 465Q211 465 166 408T120 262V257Q120 167 166 111T280 55Q344 55 402 115L444 67Q375 -11 276 -11Z" />
<glyph unicode="d" glyph-name="d" horiz-adv-x="571" d="M256 -10Q171 -10 110 60T48 255V265Q48 388 109 459T256 531Q361 531 425 424V722H497V0H425V100Q360 -10 256 -10ZM271 55Q335 55 381 111T428 256V265Q428 354 382 410T271 466T165 412T122 265V257Q122
165 165 110T271 55Z" />
<glyph unicode="e" glyph-name="e" horiz-adv-x="512" d="M277 -11Q179 -11 113 62T46 256V261Q46 379 107 455T261 531Q358 531 414 457T470 262Q470 241 469 232H119Q125 149 170 101T280 53Q355 53 415 113L456 67Q380 -11 277 -11ZM119 288H398Q394 366 358
417T261 468Q203 468 164 419T119 288Z" />
<glyph unicode="f" glyph-name="f" horiz-adv-x="319" d="M99 0V457H35V520H99V568Q99 647 139 689Q176 726 240 726Q276 726 309 716V652Q274 662 250 662Q171 662 171 564V520H307V457H172V0H99Z" />
<glyph unicode="g" glyph-name="g" horiz-adv-x="571" d="M267 -152Q159 -152 69 -96L98 -38Q176 -89 266 -89Q341 -89 383 -50T425 67V143Q359 36 253 36Q169 36 109 102T48 281V285Q48 398 109 464T254 531Q359 531 425 428V521H497V69Q497 -35 440 -92Q380
-152 267 -152ZM207 101T270 101T380 151T427 282V285Q427 366 380 416T270 466Q206 466 164 417T122 285V283Q122 201 164 151Z" />
<glyph unicode="h" glyph-name="h" horiz-adv-x="537" d="M74 0V722H146V436Q199 531 300 531Q379 531 424 480T470 341V0H398V321Q398 391 367 428T278 466Q220 466 183 425T146 317V0H74Z" />
<glyph unicode="i" glyph-name="i" horiz-adv-x="232" d="M76 628V713H156V628H76ZM80 0V521H152V0H80Z" />
<glyph unicode="j" glyph-name="j" horiz-adv-x="234" d="M78 628V713H158V628H78ZM34 -153Q14 -153 -9 -148V-88Q6 -91 22 -91Q82 -91 82 -19V521H154V-24Q154 -87 124 -120T34 -153Z" />
<glyph unicode="k" glyph-name="k" horiz-adv-x="493" d="M74 0V722H146V237L377 521H464L281 302L471 0H386L232 245L146 144V0H74Z" />
<glyph unicode="l" glyph-name="l" horiz-adv-x="232" d="M80 0V722H152V0H80Z" />
<glyph unicode="m" glyph-name="m" horiz-adv-x="831" d="M74 0V521H146V438Q201 531 292 531Q394 531 436 436Q496 531 596 531Q673 531 717 481T762 340V0H690V321Q690 392 661 429T577 466Q524 466 489 426T454 318V0H382V322Q382 391 353 428T269 466Q216
466 181 424T146 317V0H74Z" />
<glyph unicode="n" glyph-name="n" horiz-adv-x="537" d="M74 0V521H146V436Q199 531 300 531Q379 531 424 480T470 341V0H398V321Q398 391 367 428T278 466Q220 466 183 425T146 317V0H74Z" />
<glyph unicode="o" glyph-name="o" horiz-adv-x="555" d="M377 -11T277 -11T112 65T46 256V263Q46 377 112 454T278 531T443 455T509 264V258Q509 143 443 66ZM278 54Q347 54 391 112T436 257V262Q436 349 390 407T277 466Q208 466 164 409T120 263V258Q120 171
165 113T278 54Z" />
<glyph unicode="p" glyph-name="p" horiz-adv-x="571" d="M74 -150V521H146V421Q211 531 315 531Q400 531 461 460T523 266V256Q523 133 462 62T315 -10Q210 -10 146 97V-150H74ZM237 55T301 55T407 109T449 256V264Q449 356 406 411T301 466Q237 466 190 410T143
265V255Q143 167 190 111Z" />
<glyph unicode="q" glyph-name="q" horiz-adv-x="571" d="M425 -150V100Q360 -10 256 -10Q171 -10 110 60T48 255V265Q48 388 109 459T256 531Q361 531 425 424V521H497V-150H425ZM271 55Q335 55 381 111T428 256V265Q428 354 382 410T271 466T165 412T122 265V257Q122
165 165 110T271 55Z" />
<glyph unicode="r" glyph-name="r" horiz-adv-x="351" d="M74 0V521H146V406Q170 463 217 497T325 528V450H321Q245 450 196 398T146 248V0H74Z" />
<glyph unicode="s" glyph-name="s" horiz-adv-x="428" d="M215 -9Q111 -9 27 64L65 117Q140 54 217 54Q260 54 287 76T314 135V136Q314 168 287 189T201 235Q125 268 89 299T52 385V387Q52 450 98 489T214 529Q303 529 378 473L343 418Q275 467 212 467Q172 467
147 446T122 394V392Q122 362 149 342T238 296Q313 263 348 230T384 143V141Q384 73 336 32T215 -9Z" />
<glyph unicode="t" glyph-name="t" horiz-adv-x="347" d="M227 -8Q168 -8 133 23T97 121V457H34V521H97V673H169V521H305V457H169V133Q169 58 244 58Q272 58 305 72V10Q267 -8 227 -8Z" />
<glyph unicode="u" glyph-name="u" horiz-adv-x="537" d="M237 -10Q158 -10 113 41T67 179V521H139V200Q139 130 170 93T259 55Q317 55 354 96T391 203V521H463V0H391V85Q338 -10 237 -10Z" />
<glyph unicode="v" glyph-name="v" horiz-adv-x="510" d="M223 -4L31 521H109L255 93L403 521H479L288 -4H223Z" />
<glyph unicode="w" glyph-name="w" horiz-adv-x="753" d="M193 -4L37 521H113L228 106L347 522H408L527 106L643 521H716L560 -4H495L377 402L258 -4H193Z" />
<glyph unicode="x" glyph-name="x" horiz-adv-x="498" d="M122 521L249 318L378 521H456L290 268L464 0H383L248 215L113 0H34L206 266L41 521H122Z" />
<glyph unicode="y" glyph-name="y" horiz-adv-x="513" d="M264 92L404 521H481L296 -9Q269 -88 234 -121T144 -154Q95 -154 50 -130L72 -70Q107 -89 140 -89Q170 -89 190 -69T230 0L30 521H108L264 92Z" />
<glyph unicode="z" glyph-name="z" horiz-adv-x="470" d="M45 0V47L334 459H56V521H426V474L137 62H425V0H45Z" />
<glyph unicode="{" glyph-name="braceleft" horiz-adv-x="421" d="M366 -140Q254 -122 211 -79T168 39Q168 55 174 93T180 149Q180 260 67 260H45V315H67Q180 315 180 427Q180 443 174 481T168 536Q168 610 211 653T366 715L377 666Q293 648 266 619T238 528Q238
510 244 475T250 422Q250 314 146 288Q250 259 250 153Q250 136 244 100T238 47Q238 -14 265 -43T377 -91L366 -140Z" />
<glyph unicode="|" glyph-name="bar" horiz-adv-x="280" d="M110 -119V789H170V-119H110Z" />
<glyph unicode="}" glyph-name="braceright" horiz-adv-x="421" d="M54 -140L44 -91Q129 -72 156 -43T183 47Q183 64 177 100T171 153Q171 260 275 288Q171 316 171 422Q171 439 177 474T183 528Q183 589 156 618T44 666L54 715Q167 697 209 654T252 536Q252 520
247 482T241 427Q241 315 353 315H375V260H353Q241 260 241 149Q241 132 246 94T252 39Q252 -35 210 -78T54 -140Z" />
<glyph unicode="~" glyph-name="asciitilde" horiz-adv-x="425" d="M275 248Q249 248 209 270Q169 291 154 291Q138 291 129 280T109 242L65 254Q78 306 98 329T150 353Q176 353 216 331Q254 311 271 311Q287 311 297 322T317 359L361 347Q348 295 328 272T275 248Z" />
</font>
</defs>
</svg>
